{"title":"18+ The Jade Pendant 2018 Movies DVDRip x264 5.1 ESubs +Sample ☻","magnet":"magnet:?xt=urn:btih:c48999e3592503051e79cf36c1ffc73494ca7193&dn=18%2B+The+Jade+Pendant+2018+Movies+DVDRip+x264+5.1+ESubs+%2BSample+%E2%98%BB&tr=udp%3A%2F%2Ftracker.leechers-paradise.org%3A6969&tr=udp%3A%2F%2Fzer0day.ch%3A1337&tr=udp%3A%2F%2Fopen.demonii.com%3A1337&tr=udp%3A%2F%2Ftracker.coppersurfer.tk%3A6969&tr=udp%3A%2F%2Fexodus.desync.com%3A6969","uploader":"basicssom","categoryP":"video","categoryS":"movies","size":"888022377","seeders":"1","leechers":"140","description":"----------------------------------------------------------------\r\n18+ The Jade Pendant 2018 Movies DVDRip x264 5.1 ESubs with Sample &#x263B;rDX&#x263B;\r\n\r\nSCREEN SHOTS &amp; POSTER:\r\n   <a href=\"\nhttp://iphonehosting.eu/2018/4/a/debit/index.html\" rel=\"nofollow\" target=\"_NEW\">\nhttp://iphonehosting.eu/2018/4/a/debit/index.html</a> <a href=\"\nhttp://iphonehosting.eu/2018/4/a/debit/1.html\" rel=\"nofollow\" target=\"_NEW\">\nhttp://iphonehosting.eu/2018/4/a/debit/1.html</a> <a href=\"\nhttp://iphonehosting.eu/2018/4/a/debit/2.html\" rel=\"nofollow\" target=\"_NEW\">\nhttp://iphonehosting.eu/2018/4/a/debit/2.html</a>   <a href=\"\nhttp://iphonehosting.eu/2018/4/a/debit/3.html\" rel=\"nofollow\" target=\"_NEW\">\nhttp://iphonehosting.eu/2018/4/a/debit/3.html</a>   <a href=\"\nhttp://iphonehosting.eu/2018/4/a/debit/4.html\" rel=\"nofollow\" target=\"_NEW\">\nhttp://iphonehosting.eu/2018/4/a/debit/4.html</a>   <a href=\"\nhttp://iphonehosting.eu/2018/4/a/debit/5.html\" rel=\"nofollow\" target=\"_NEW\">\nhttp://iphonehosting.eu/2018/4/a/debit/5.html</a>   <a href=\"\nhttp://iphonehosting.eu/2018/4/a/debit/6.html\" rel=\"nofollow\" target=\"_NEW\">\nhttp://iphonehosting.eu/2018/4/a/debit/6.html</a>   <a href=\"\nhttp://iphonehosting.eu/2018/4/a/debit/7.html\" rel=\"nofollow\" target=\"_NEW\">\nhttp://iphonehosting.eu/2018/4/a/debit/7.html</a>   <a href=\"\nhttp://iphonehosting.eu/2018/4/a/debit/8.html\" rel=\"nofollow\" target=\"_NEW\">\nhttp://iphonehosting.eu/2018/4/a/debit/8.html</a>   <a href=\"\nhttp://iphonehosting.eu/2018/4/a/debit/9.html\" rel=\"nofollow\" target=\"_NEW\">\nhttp://iphonehosting.eu/2018/4/a/debit/9.html</a>   <a href=\"\nhttp://iphonehosting.eu/2018/4/a/debit/10.html\" rel=\"nofollow\" target=\"_NEW\">\nhttp://iphonehosting.eu/2018/4/a/debit/10.html</a>\r\n\r\nFile size                                : 839 MiB\r\nDuration                                 : 1 h 46 min\r\nOverall bit rate mode                    : Constant\r\nOverall bit rate                         : 1 098 kb/s\r\nMovie name                               : 18+ The Jade Pendant 2018 Movies DVDRip x264 5.1 ESubs &#x263B;rDX&#x263B;\r\n\r\nVideo\r\nID                                       : 2\r\nFormat                                   : AVC\r\nFormat/Info                              : Advanced Video Codec\r\nFormat profile                           : <a href=\"/cdn-cgi/l/email-protection\" class=\"__cf_email__\" data-cfemail=\"d09db1b9be909ce3\">[email&#xA0;protected]</a>\r\nFormat settings, CABAC                   : Yes\r\nFormat settings, ReFrames                : 2 frames\r\nFormat settings, GOP                     : M=1, N=12\r\nCodec ID                                 : V_MPEG4/ISO/AVC\r\nDuration                                 : 1 h 46 min\r\nBit rate mode                            : Constant\r\nBit rate                                 : 651 kb/s\r\nWidth                                    : 720 pixels\r\nHeight                                   : 304 pixels\r\nDisplay aspect ratio                     : 2.35:1\r\nFrame rate mode                          : Constant\r\nFrame rate                               : 23.976 (24000/1001) FPS\r\nColor space                              : YUV\r\nChroma subsampling                       : 4:2:0\r\nBit depth                                : 8 bits\r\nScan type                                : Progressive\r\nBits/(Pixel*Frame)                       : 0.124\r\nStream size                              : 480 MiB (57%)\r\nTitle                                    : &#x263B;rDX&#x263B;\r\nDefault                                  : Yes\r\nForced                                   : No\r\n\r\nAudio\r\nID                                       : 1\r\nFormat                                   : AC-3\r\nFormat/Info                              : Audio Coding 3\r\nMode extension                           : CM (complete main)\r\nFormat settings, Endianness              : Big\r\nCodec ID                                 : A_AC3\r\nDuration                                 : 1 h 46 min\r\nBit rate mode                            : Constant\r\nBit rate                                 : 448 kb/s\r\nChannel(s)                               : 6 channels\r\nChannel positions                        : Front: L C R, Side: L R, LFE\r\nSampling rate                            : 48.0 kHz\r\nFrame rate                               : 31.250 FPS (1536 spf)\r\nBit depth                                : 16 bits\r\nCompression mode                         : Lossy\r\nStream size                              : 342 MiB (41%)\r\nTitle                                    : &#x263B;rDX&#x263B;\r\nDefault                                  : Yes\r\nForced                                   : No","last_updated":"2018-04-28T12:13:49.636Z","parsed":{"xt":"urn:btih:c48999e3592503051e79cf36c1ffc73494ca7193","dn":"18  The Jade Pendant 2018 Movies DVDRip x264 5.1 ESubs  Sample ☻","tr":["udp://exodus.desync.com:6969","udp://open.demonii.com:1337","udp://tracker.coppersurfer.tk:6969","udp://tracker.leechers-paradise.org:6969","udp://zer0day.ch:1337"],"infoHash":"c48999e3592503051e79cf36c1ffc73494ca7193","infoHashBuffer":{"type":"Buffer","data":[196,137,153,227,89,37,3,5,30,121,207,54,193,255,199,52,148,202,113,147]},"name":"18  The Jade Pendant 2018 Movies DVDRip x264 5.1 ESubs  Sample ☻","announce":["udp://exodus.desync.com:6969","udp://open.demonii.com:1337","udp://tracker.coppersurfer.tk:6969","udp://tracker.leechers-paradise.org:6969","udp://zer0day.ch:1337"],"urlList":[]}}